<svg width="63" height="64" viewBox="0 0 63 64" fill="none" xmlns="http://www.w3.org/2000/svg">
<path d="M61.59 31.9997C61.59 49.3971 47.9166 63.4915 31.0776 63.4915C14.2386 63.4915 0.508057 49.3971 0.508057 31.9997C0.508057 14.6023 14.1751 0.507812 31.0522 0.507812C47.9293 0.507812 61.59 14.6086 61.59 31.9997Z" fill="white"/>
<path d="M31.0527 64C13.934 64 0 49.6514 0 32C0 14.3486 13.934 0 31.0527 0C48.1714 0 62.099 14.3549 62.099 32C62.099 49.6451 48.1714 64 31.0527 64ZM31.0527 1.00992C14.487 1.00992 1.01072 14.9139 1.01072 32C1.01072 49.0861 14.487 62.9901 31.0527 62.9901C47.6184 62.9901 61.0946 49.0925 61.0946 32C61.0946 14.9075 47.612 1.00992 31.0527 1.00992Z" fill="#542A33"/>
<path d="M59.2001 32.0003C59.2001 48.0384 46.601 61.034 31.0524 61.034C15.5039 61.034 2.89844 48.0384 2.89844 32.0003C2.89844 15.9622 15.5039 2.9729 31.0524 2.9729C46.601 2.9729 59.2001 15.9685 59.2001 32.0003Z" fill="white"/>
<path d="M31.0531 62.0439C14.9706 62.0439 1.90747 48.5655 1.90747 32.0002C1.90747 15.4349 14.9706 1.96289 31.0531 1.96289C47.1357 1.96289 60.2179 15.4349 60.2179 32.0002C60.2179 48.5655 47.1357 62.0439 31.0531 62.0439ZM31.0531 3.98274C16.083 3.98274 3.90349 16.5528 3.90349 32.0002C3.90349 47.4476 16.083 60.024 31.0531 60.024C46.0233 60.024 58.1964 47.454 58.1964 32.0002C58.1964 16.5465 46.0169 3.98274 31.0531 3.98274Z" fill="#542A33"/>
<path d="M9.90422 36.9988C9.6957 35.7374 9.56198 34.4649 9.50375 33.1878C9.52095 33.0773 9.56704 32.9733 9.63735 32.8863C9.70767 32.7993 9.79973 32.7324 9.90422 32.6923C9.15413 32.0572 8.39768 26.8614 9.90422 23.7999C9.97415 23.6538 10.0568 23.5204 10.1331 23.387C10.6861 22.4787 13.5657 24.6574 18.3968 24.7844C24.8362 24.9877 27.0547 21.31 28.86 21.6086C30.6653 21.9071 35.8969 27.9603 41.4019 28.7987C46.5953 29.599 51.8142 28.3033 54.1726 32.6923C55.3867 34.9345 54.0963 36.1413 52.5198 36.6812C50.9433 37.2211 39.4122 40.651 33.8374 40.0667C28.9236 39.5712 24.1878 37.526 21.1874 37.1004C20.787 37.0496 20.5136 39.0059 20.1131 39.1203C19.7127 39.2346 11.023 39.3426 9.90422 36.9988Z" fill="#542A33"/>
<path d="M10.895 32.9336C13.7987 33.4052 16.6629 34.0931 19.4639 34.9916C22.7567 35.9888 26.0177 37.0876 29.3486 37.9388C31.0451 38.4222 32.7882 38.7245 34.5485 38.8407C35.4246 38.8565 36.3011 38.8247 37.1738 38.7454C38.051 38.6756 38.9283 38.5803 39.8055 38.4659C43.2013 38.0134 46.5677 37.3623 49.8873 36.516C50.8321 36.3057 51.7639 36.0406 52.6779 35.722C53.3708 35.4616 54.3561 34.8391 54.159 33.9689C54.4069 34.6803 53.7458 35.3028 53.1864 35.6267C52.8343 35.8098 52.4634 35.9546 52.0803 36.0586C51.7053 36.1793 51.3175 36.2937 50.9298 36.4016C49.347 36.8463 47.7514 37.2337 46.1559 37.5831C42.7623 38.3914 39.3031 38.8952 35.8198 39.0884C34.9411 39.1255 34.0608 39.0894 33.1881 38.9804C32.3236 38.8661 31.4718 38.6946 30.6454 38.4977C28.9355 38.1039 27.2509 37.6085 25.56 37.0876C22.299 36.0841 19.0698 34.9661 15.7897 34.0388C14.1796 33.5814 12.5456 33.2124 10.895 32.9336Z" fill="white"/>
<path d="M10.3616 24.1807C11.6329 24.8158 12.8216 25.5908 14.1184 26.1751C15.6687 26.9161 17.3533 27.3352 19.0703 27.4073C19.9273 27.428 20.7831 27.3297 21.613 27.1152C22.4293 26.8995 23.2217 26.6016 23.9777 26.2259C24.7089 25.8502 25.4065 25.4125 26.0627 24.9175C26.7352 24.4431 27.3725 23.9209 27.9697 23.3549C28.2049 23.1136 28.4529 22.8849 28.7008 22.6436C27.7203 23.828 26.5924 24.8825 25.3444 25.7813C23.983 26.759 22.4149 27.411 20.7612 27.6868C19.048 27.9309 17.3009 27.7476 15.6758 27.1533C14.1474 26.5656 12.6976 25.7912 11.3596 24.8476L10.3616 24.1807Z" fill="white"/>
<path d="M31.269 32.1905C32.6658 32.7071 34.1189 33.0568 35.598 33.2322C37.3237 33.4648 39.0628 33.5837 40.8042 33.5879C41.6814 33.5879 42.584 33.5879 43.474 33.5434C44.3274 33.481 45.1764 33.3686 46.0167 33.2068C46.8275 33.0523 47.6263 32.84 48.4068 32.5716C49.1247 32.3457 49.8057 32.0162 50.4283 31.5934L50.7588 31.333C49.6472 32.3283 48.2919 33.012 46.8303 33.3147C46.0133 33.5329 45.1831 33.6983 44.3449 33.8102C43.4843 33.913 42.618 33.9618 41.7513 33.9563C40.0025 33.9961 38.2532 33.8984 36.5197 33.6641C34.9956 33.4858 33.5003 33.1144 32.07 32.5589C31.7839 32.4509 31.5297 32.3239 31.269 32.1905Z" fill="white"/>
<path d="M10.0557 24.9497C9.91242 25.4829 9.82927 26.0304 9.80778 26.5821C9.75692 27.2173 9.75057 27.9287 9.76328 28.6019C9.77168 29.2583 9.81838 29.9137 9.90313 30.5646C9.95951 31.1292 10.1144 31.6795 10.3608 32.1907C10.0372 31.7366 9.81991 31.2156 9.72514 30.6663C9.58042 29.981 9.50377 29.2832 9.4963 28.5829C9.48457 27.9079 9.52068 27.2329 9.60436 26.563C9.66811 26.0047 9.82046 25.4601 10.0557 24.9497Z" fill="white"/>
<path d="M10.2794 33.5117C10.3429 34.0707 10.4002 34.6296 10.4574 35.1822C10.4955 35.5443 10.5273 35.9063 10.5591 36.2684C10.5709 36.5692 10.6178 36.8676 10.6989 37.1576C10.5377 36.9326 10.4291 36.6743 10.3811 36.4018C10.2966 36.0614 10.2371 35.7154 10.2031 35.3664C10.1298 34.7481 10.1555 34.122 10.2794 33.5117Z" fill="white"/>
</svg>
